<?xml version="1.0" standalone="no"?>
<!DOCTYPE svg PUBLIC "-//W3C//DTD SVG 20010904//EN"
 "http://www.w3.org/TR/2001/REC-SVG-20010904/DTD/svg10.dtd">
<svg version="1.0" xmlns="http://www.w3.org/2000/svg"
 width="360.000000pt" height="360.000000pt" viewBox="0 0 360.000000 360.000000"
 preserveAspectRatio="xMidYMid meet">

<g transform="translate(0.000000,360.000000) scale(0.100000,-0.100000)"
fill="#000000" stroke="none">
<path d="M1675 2415 c-78 -17 -173 -55 -227 -93 -58 -40 -157 -146 -192 -206
-21 -37 -76 -175 -76 -193 0 -2 15 -3 33 -3 36 0 136 -45 237 -107 75 -46 120
-63 165 -63 48 0 209 -30 219 -40 7 -7 -112 -10 -322 -10 -268 0 -332 -3 -332
-13 0 -7 7 -38 16 -68 63 -213 243 -384 456 -434 82 -19 228 -19 303 0 113 29
203 81 290 169 72 72 145 181 145 215 0 8 -78 11 -267 11 -150 0 -261 4 -253
9 15 9 110 24 260 41 68 8 95 16 135 42 27 17 76 47 108 66 l57 35 0 56 c-1
278 -236 544 -522 591 -82 13 -159 12 -233 -5z"/>
</g>
</svg>
